<?xml version="1.0" encoding="UTF-8" standalone="no"?>
<!-- Created with Inkscape (http://www.inkscape.org/) -->

<svg
   xmlns:dc="http://purl.org/dc/elements/1.1/"
   xmlns:cc="http://creativecommons.org/ns#"
   xmlns:rdf="http://www.w3.org/1999/02/22-rdf-syntax-ns#"
   xmlns:svg="http://www.w3.org/2000/svg"
   xmlns="http://www.w3.org/2000/svg"
   xmlns:sodipodi="http://sodipodi.sourceforge.net/DTD/sodipodi-0.dtd"
   xmlns:inkscape="http://www.inkscape.org/namespaces/inkscape"
   width="34.492321mm"
   height="8.5344mm"
   viewBox="0 0 122.21689 30.24"
   id="svg2"
   version="1.1"
   inkscape:version="0.91 r13725"
   sodipodi:docname="logo_white.svg">
  <defs
     id="defs4" />
  <sodipodi:namedview
     id="base"
     pagecolor="#ffffff"
     bordercolor="#666666"
     borderopacity="1.0"
     inkscape:pageopacity="0.0"
     inkscape:pageshadow="2"
     inkscape:zoom="2.8"
     inkscape:cx="22.076147"
     inkscape:cy="-35.479375"
     inkscape:document-units="px"
     inkscape:current-layer="layer1"
     showgrid="false"
     fit-margin-top="0"
     fit-margin-left="0"
     fit-margin-right="0"
     fit-margin-bottom="0"
     inkscape:window-width="1920"
     inkscape:window-height="1019"
     inkscape:window-x="0"
     inkscape:window-y="31"
     inkscape:window-maximized="1" />
  <metadata
     id="metadata7">
    <rdf:RDF>
      <cc:Work
         rdf:about="">
        <dc:format>image/svg+xml</dc:format>
        <dc:type
           rdf:resource="http://purl.org/dc/dcmitype/StillImage" />
        <dc:title></dc:title>
      </cc:Work>
    </rdf:RDF>
  </metadata>
  <g
     inkscape:label="Layer 1"
     inkscape:groupmode="layer"
     id="layer1"
     transform="translate(-208.59429,-299.74507)">
    <g
       style="font-style:normal;font-weight:normal;font-size:40px;line-height:125%;font-family:sans-serif;letter-spacing:0px;word-spacing:0px;writing-mode:lr-tb;fill:#ffffff;fill-opacity:1;stroke:none;stroke-width:1px;stroke-linecap:butt;stroke-linejoin:miter;stroke-opacity:1"
       id="text4136">
      <path
         d="m 208.59429,300.70507 q 1.28,-0.2 2.96,-0.32 1.68,-0.12 4.2,-0.12 2.2,0 4.16,0.36 1.96,0.36 3.4,1.24 1.48,0.84 2.32,2.28 0.84,1.44 0.84,3.6 0,1.28 -0.4,2.4 -0.36,1.08 -1,1.92 -0.64,0.8 -1.44,1.36 -0.8,0.52 -1.64,0.64 0.92,0.12 2.04,0.56 1.12,0.44 2.08,1.32 0.96,0.84 1.6,2.2 0.64,1.36 0.64,3.28 0,2.6 -1,4.28 -0.96,1.64 -2.64,2.6 -1.64,0.96 -3.84,1.32 -2.16,0.36 -4.56,0.36 -1.84,0 -3.64,-0.12 -1.8,-0.08 -4.08,-0.36 l 0,-28.8 z m 5.8,24.4 q 0.56,0.08 1.28,0.12 0.76,0.04 1.36,0.04 0.84,0 1.76,-0.16 0.92,-0.16 1.72,-0.6 0.8,-0.48 1.32,-1.28 0.52,-0.84 0.52,-2.16 0,-1.24 -0.4,-2.04 -0.4,-0.84 -1.16,-1.32 -0.72,-0.52 -1.76,-0.72 -1,-0.2 -2.24,-0.2 l -2.4,0 0,8.32 z m 1.76,-12.72 q 1,0 1.84,-0.16 0.88,-0.2 1.52,-0.64 0.64,-0.48 1,-1.24 0.36,-0.8 0.36,-2 0,-1.16 -0.44,-1.88 -0.4,-0.76 -1.08,-1.16 -0.64,-0.44 -1.48,-0.56 -0.8,-0.16 -1.6,-0.16 -1.12,0 -1.88,0.12 l 0,7.68 1.76,0 z"
         style="font-style:normal;font-variant:normal;font-weight:bold;font-stretch:normal;font-family:Aller;-inkscape-font-specification:'Aller Bold';fill:#ffffff"
         id="path4141"
         inkscape:connector-curvature="0" />
      <path
         d="m 241.49304,329.98507 q -2.52,0 -4.4,-0.8 -1.84,-0.84 -3.08,-2.28 -1.2,-1.48 -1.84,-3.44 -0.6,-1.96 -0.6,-4.24 0,-2.28 0.6,-4.28 0.64,-2 1.84,-3.44 1.24,-1.48 3.08,-2.32 1.88,-0.84 4.4,-0.84 2.52,0 4.4,0.84 1.88,0.84 3.12,2.32 1.24,1.44 1.84,3.44 0.6,2 0.6,4.28 0,2.28 -0.6,4.24 -0.6,1.96 -1.84,3.44 -1.24,1.44 -3.12,2.28 -1.88,0.8 -4.4,0.8 z m 0,-4.32 q 2.24,0 3.2,-1.64 1,-1.68 1,-4.8 0,-3.12 -1,-4.76 -0.96,-1.68 -3.2,-1.68 -2.2,0 -3.2,1.68 -0.96,1.64 -0.96,4.76 0,3.12 0.96,4.8 1,1.64 3.2,1.64 z"
         style="font-style:normal;font-variant:normal;font-weight:bold;font-stretch:normal;font-family:Aller;-inkscape-font-specification:'Aller Bold';fill:#ffffff"
         id="path4143"
         inkscape:connector-curvature="0" />
      <path
         d="m 264.69617,329.98507 q -2.52,0 -4.4,-0.8 -1.84,-0.84 -3.08,-2.28 -1.2,-1.48 -1.84,-3.44 -0.6,-1.96 -0.6,-4.24 0,-2.28 0.6,-4.28 0.64,-2 1.84,-3.44 1.24,-1.48 3.08,-2.32 1.88,-0.84 4.4,-0.84 2.52,0 4.4,0.84 1.88,0.84 3.12,2.32 1.24,1.44 1.84,3.44 0.6,2 0.6,4.28 0,2.28 -0.6,4.24 -0.6,1.96 -1.84,3.44 -1.24,1.44 -3.12,2.28 -1.88,0.8 -4.4,0.8 z m 0,-4.32 q 2.24,0 3.2,-1.64 1,-1.68 1,-4.8 0,-3.12 -1,-4.76 -0.96,-1.68 -3.2,-1.68 -2.2,0 -3.2,1.68 -0.96,1.64 -0.96,4.76 0,3.12 0.96,4.8 1,1.64 3.2,1.64 z"
         style="font-style:normal;font-variant:normal;font-weight:bold;font-stretch:normal;font-family:Aller;-inkscape-font-specification:'Aller Bold';fill:#ffffff"
         id="path4145"
         inkscape:connector-curvature="0" />
      <path
         d="m 278.77929,300.26507 q 1.36,-0.24 2.8,-0.24 1.44,0 2.84,0.24 l 0,29.24 q -1.4,0.24 -2.84,0.24 -1.44,0 -2.8,-0.24 l 0,-29.24 z m 6.44,18.4 5.12,-9.84 q 1.56,-0.24 3.16,-0.24 1.52,0 2.96,0.24 l -5.28,9.56 6.16,11.12 q -1.64,0.24 -3.16,0.24 -1.4,0 -2.96,-0.24 l -6,-10.84 z"
         style="font-style:normal;font-variant:normal;font-weight:bold;font-stretch:normal;font-family:Aller;-inkscape-font-specification:'Aller Bold';fill:#ffffff"
         id="path4147"
         inkscape:connector-curvature="0" />
      <path
         d="m 301.66554,313.14507 -2.68,0 q -0.12,-0.52 -0.2,-1.08 -0.04,-0.6 -0.04,-1.12 0,-1.08 0.24,-2.12 l 8.24,0 0,20.68 q -1.44,0.24 -2.8,0.24 -1.32,0 -2.76,-0.24 l 0,-16.36 z m -0.84,-7.8 q -0.24,-1.36 -0.24,-2.68 0,-1.28 0.24,-2.68 0.68,-0.12 1.44,-0.16 0.8,-0.08 1.44,-0.08 0.68,0 1.48,0.08 0.8,0.04 1.48,0.16 0.12,0.68 0.16,1.36 0.04,0.64 0.04,1.32 0,0.64 -0.04,1.32 -0.04,0.68 -0.16,1.36 -0.68,0.12 -1.48,0.16 -0.76,0.04 -1.44,0.04 -0.64,0 -1.44,-0.04 -0.8,-0.04 -1.48,-0.16 z"
         style="font-style:normal;font-variant:normal;font-weight:bold;font-stretch:normal;font-family:Aller;-inkscape-font-specification:'Aller Bold';fill:#ffffff"
         id="path4149"
         inkscape:connector-curvature="0" />
      <path
         d="m 317.33117,320.90507 q 0.16,2.4 1.68,3.48 1.52,1.08 4,1.08 1.36,0 2.76,-0.24 1.44,-0.28 2.72,-0.76 0.44,0.8 0.76,1.92 0.32,1.12 0.36,2.4 -3.12,1.2 -7.04,1.2 -2.88,0 -4.96,-0.8 -2.04,-0.8 -3.36,-2.2 -1.28,-1.44 -1.92,-3.4 -0.6,-1.96 -0.6,-4.28 0,-2.28 0.64,-4.28 0.64,-2 1.88,-3.48 1.28,-1.48 3.12,-2.32 1.88,-0.88 4.36,-0.88 2.16,0 3.84,0.76 1.68,0.76 2.84,2.08 1.2,1.32 1.8,3.16 0.6,1.8 0.6,3.88 0,0.76 -0.08,1.52 -0.04,0.72 -0.12,1.16 l -13.28,0 z m 8.12,-3.96 q -0.08,-1.92 -1.08,-3.08 -0.96,-1.2 -2.72,-1.2 -2,0 -3.04,1.12 -1.04,1.12 -1.24,3.16 l 8.08,0 z"
         style="font-style:normal;font-variant:normal;font-weight:bold;font-stretch:normal;font-family:Aller;-inkscape-font-specification:'Aller Bold';fill:#ffffff"
         id="path4151"
         inkscape:connector-curvature="0" />
    </g>
  </g>
</svg>
